<svg xmlns="http://www.w3.org/2000/svg" xmlns:xlink="http://www.w3.org/1999/xlink" width="30" height="30" viewBox="0 0 30 30">
  <defs>
    <clipPath id="clip-path">
      <rect width="30" height="30" fill="none"/>
    </clipPath>
  </defs>
  <g id="Repeat_Grid_17" data-name="Repeat Grid 17" clip-path="url(#clip-path)">
    <g id="Group_36" data-name="Group 36" transform="translate(-1294 -32)">
      <rect id="Rectangle_33" data-name="Rectangle 33" width="30" height="30" transform="translate(1294 32)" fill="none"/>
      <g id="settings" transform="translate(1297 34.999)">
        <g id="Group_30" data-name="Group 30" transform="translate(0 0.001)">
          <path id="Path_3" data-name="Path 3" d="M23.136,9.633l-1.712-.29a9.664,9.664,0,0,0-.688-1.661l1.009-1.411a1.5,1.5,0,0,0-.163-1.941L20.065,2.813A1.5,1.5,0,0,0,19,2.37a1.48,1.48,0,0,0-.871.28L16.713,3.658a9.564,9.564,0,0,0-1.722-.708l-.285-1.691A1.5,1.5,0,0,0,13.219,0H11.074A1.5,1.5,0,0,0,9.587,1.259l-.3,1.732a9.426,9.426,0,0,0-1.656.7L6.235,2.68a1.5,1.5,0,0,0-1.941.163L2.771,4.361A1.508,1.508,0,0,0,2.608,6.3L3.627,7.733A9.44,9.44,0,0,0,2.949,9.4l-1.691.285A1.5,1.5,0,0,0,0,11.172v2.145A1.5,1.5,0,0,0,1.258,14.8l1.732.3a9.426,9.426,0,0,0,.7,1.655l-1,1.4a1.5,1.5,0,0,0,.163,1.941l1.518,1.518a1.5,1.5,0,0,0,1.065.443,1.48,1.48,0,0,0,.871-.28l1.431-1.019a9.637,9.637,0,0,0,1.61.662l.285,1.712a1.5,1.5,0,0,0,1.487,1.258h2.15a1.5,1.5,0,0,0,1.487-1.258l.29-1.712a9.664,9.664,0,0,0,1.661-.688l1.411,1.009a1.5,1.5,0,0,0,.876.28h0a1.5,1.5,0,0,0,1.065-.443l1.518-1.518a1.508,1.508,0,0,0,.163-1.941L20.727,16.7a9.6,9.6,0,0,0,.688-1.661l1.712-.285a1.5,1.5,0,0,0,1.258-1.487V11.121A1.487,1.487,0,0,0,23.136,9.633Zm-.117,3.632a.132.132,0,0,1-.112.132l-2.139.357a.684.684,0,0,0-.55.5,8.154,8.154,0,0,1-.886,2.134.689.689,0,0,0,.031.749l1.258,1.773a.139.139,0,0,1-.015.173l-1.518,1.518a.129.129,0,0,1-.1.041.125.125,0,0,1-.076-.025l-1.768-1.258a.688.688,0,0,0-.749-.031,8.154,8.154,0,0,1-2.134.886.676.676,0,0,0-.5.55L13.4,22.908a.132.132,0,0,1-.132.112H11.12a.132.132,0,0,1-.132-.112l-.357-2.139a.684.684,0,0,0-.5-.55,8.467,8.467,0,0,1-2.088-.856.705.705,0,0,0-.346-.092.671.671,0,0,0-.4.127L5.512,20.667a.152.152,0,0,1-.076.025.137.137,0,0,1-.1-.041L3.82,19.133a.138.138,0,0,1-.015-.173L5.058,17.2a.7.7,0,0,0,.031-.754,8.078,8.078,0,0,1-.9-2.129.7.7,0,0,0-.55-.5l-2.155-.367a.132.132,0,0,1-.112-.132V11.172a.132.132,0,0,1,.112-.132l2.124-.357a.689.689,0,0,0,.555-.509,8.146,8.146,0,0,1,.871-2.139A.68.68,0,0,0,5,7.29L3.734,5.507a.139.139,0,0,1,.015-.173L5.267,3.816a.129.129,0,0,1,.1-.041A.125.125,0,0,1,5.44,3.8L7.2,5.054a.7.7,0,0,0,.754.031,8.078,8.078,0,0,1,2.129-.9.7.7,0,0,0,.5-.55l.367-2.155a.132.132,0,0,1,.132-.112h2.145a.132.132,0,0,1,.132.112l.357,2.124a.689.689,0,0,0,.509.555,8.268,8.268,0,0,1,2.185.9.689.689,0,0,0,.749-.031l1.757-1.263a.152.152,0,0,1,.076-.025.137.137,0,0,1,.1.041L20.61,5.3a.138.138,0,0,1,.015.173L19.367,7.239a.688.688,0,0,0-.031.749,8.154,8.154,0,0,1,.886,2.134.676.676,0,0,0,.55.5l2.139.362a.132.132,0,0,1,.112.132v2.145Z" transform="translate(0 -0.001)" fill="#fff"/>
          <path id="Path_4" data-name="Path 4" d="M141.362,136a5.262,5.262,0,1,0,5.262,5.262A5.265,5.265,0,0,0,141.362,136Zm0,9.149a3.887,3.887,0,1,1,3.887-3.887A3.889,3.889,0,0,1,141.362,145.15Z" transform="translate(-129.167 -129.073)" fill="#fff"/>
        </g>
      </g>
    </g>
  </g>
</svg>
