<svg xmlns="http://www.w3.org/2000/svg" width="20" height="20" viewBox="0 0 20 20">
  <g id="Group_48" data-name="Group 48" transform="translate(-934 -317)">
    <path id="trash001_-_E062" data-name="trash001 - E062" d="M-14.231-35.6a1.791,1.791,0,0,0,1.786,1.7h6.071a1.791,1.791,0,0,0,1.786-1.7l.512-10.2h.857V-47H-6.671v-.6a1.306,1.306,0,0,0-1.31-1.31h-2.857a1.306,1.306,0,0,0-1.31,1.31v.6H-15.6v1.19h.857Zm3.274-11.988a.112.112,0,0,1,.119-.119h2.857a.112.112,0,0,1,.119.119v.6h-3.1Zm5.179,11.929a.6.6,0,0,1-.6.571h-6.071a.6.6,0,0,1-.6-.571l-.5-10.143h8.262Zm-5.06-.643-.286-8.321-1.19.036.286,8.333ZM-6.5-44.59l-1.19-.036L-7.981-36.3l1.19.048Zm-2.31-.024H-10v8.333h1.19Z" transform="translate(953.6 368.9)" fill="#fff"/>
    <rect id="Rectangle_36" data-name="Rectangle 36" width="20" height="20" transform="translate(934 317)" fill="none"/>
  </g>
</svg>
