<svg xmlns="http://www.w3.org/2000/svg" width="30" height="30" viewBox="0 0 30 30">
  <g id="Group_32" data-name="Group 32" transform="translate(-1079 -32)">
    <path id="clock001_-_E008" data-name="clock001 - E008" d="M-6.564-23.628a12.763,12.763,0,0,1-5.015-1.015,12.831,12.831,0,0,1-4.12-2.766,12.888,12.888,0,0,1-2.786-4.12A12.788,12.788,0,0,1-19.5-36.564,12.961,12.961,0,0,1-6.564-49.5a12.788,12.788,0,0,1,5.035,1.015,12.8,12.8,0,0,1,4.1,2.786,12.8,12.8,0,0,1,2.786,4.1,12.788,12.788,0,0,1,1.015,5.035,12.788,12.788,0,0,1-1.015,5.035,12.888,12.888,0,0,1-2.786,4.12,13.075,13.075,0,0,1-4.1,2.766A12.788,12.788,0,0,1-6.564-23.628Zm0-23.882A10.965,10.965,0,0,0-17.51-36.564a11.146,11.146,0,0,0,.856,4.259,10.709,10.709,0,0,0,2.368,3.483A10.654,10.654,0,0,0-10.8-26.474a10.972,10.972,0,0,0,4.239.856A10.965,10.965,0,0,0,4.382-36.564a11.146,11.146,0,0,0-.856-4.259,11.434,11.434,0,0,0-2.348-3.483A11.434,11.434,0,0,0-2.3-46.654,11.146,11.146,0,0,0-6.564-47.51Z" transform="translate(1100.5 83.5)" fill="#fff"/>
    <rect id="Rectangle_30" data-name="Rectangle 30" width="30" height="30" transform="translate(1079 32)" fill="none"/>
    <path id="Path_10" data-name="Path 10" d="M1087.849,48.575h6.629V39.132" fill="none" stroke="#fff" stroke-linecap="round" stroke-linejoin="round" stroke-width="2"/>
  </g>
</svg>
