<svg xmlns="http://www.w3.org/2000/svg" width="30" height="30" viewBox="0 0 30 30">
  <g id="Group_34" data-name="Group 34" transform="translate(-1149 -32)">
    <rect id="Rectangle_31" data-name="Rectangle 31" width="30" height="30" transform="translate(1149 32)" fill="none"/>
    <g id="Group_33" data-name="Group 33" transform="translate(0 0)">
      <path id="check004_-_E105" data-name="check004 - E105" d="M1.818-23.859h-14A4.322,4.322,0,0,1-16.5-28.182v-14A4.322,4.322,0,0,1-12.178-46.5h14a4.322,4.322,0,0,1,4.322,4.322v14A4.322,4.322,0,0,1,1.818-23.859Zm-14-20.582a2.258,2.258,0,0,0-2.264,2.264v14a2.258,2.258,0,0,0,2.264,2.264h14a2.258,2.258,0,0,0,2.264-2.264v-14a2.258,2.258,0,0,0-2.264-2.264Z" transform="translate(1169.5 82.5)" fill="#fff"/>
      <path id="Path_9" data-name="Path 9" d="M1159.081,47l4.146,4.7,6.5-10.21" fill="none" stroke="#fff" stroke-linecap="round" stroke-linejoin="round" stroke-width="2"/>
    </g>
  </g>
</svg>
